<svg xmlns="http://www.w3.org/2000/svg" id="Layer_1" data-name="Layer 1" viewBox="0 0 635 635"><defs><style>.cls-1{fill:#f7f382}.cls-2{fill:none;stroke:#000;stroke-miterlimit:10;stroke-width:2px}</style></defs><title>Artboard 1 copy 5</title><rect width="635" height="635" y="1" class="cls-1"/><line x1="192.89" x2="159.71" y1="246.9" y2="272.49" class="cls-2"/><line x1="174.97" x2="219.68" y1="240.91" y2="246.67" class="cls-2"/><line x1="174.99" x2="219.66" y1="246.79" y2="240.79" class="cls-2"/><line x1="176.53" x2="218.12" y1="252.47" y2="235.11" class="cls-2"/><line x1="179.48" x2="215.17" y1="257.55" y2="230.02" class="cls-2"/><line x1="183.65" x2="211" y1="261.7" y2="225.87" class="cls-2"/><line x1="188.76" x2="205.9" y1="264.63" y2="222.95" class="cls-2"/><line x1="194.44" x2="200.21" y1="266.14" y2="221.44" class="cls-2"/><line x1="200.33" x2="194.33" y1="266.12" y2="221.45" class="cls-2"/><line x1="206" x2="188.65" y1="264.59" y2="222.99" class="cls-2"/><line x1="211.09" x2="183.56" y1="261.63" y2="225.95" class="cls-2"/><line x1="215.24" x2="179.41" y1="257.46" y2="230.12" class="cls-2"/><line x1="218.17" x2="176.48" y1="252.36" y2="235.22" class="cls-2"/><line x1="423.66" x2="383.95" y1="281.44" y2="294.83" class="cls-2"/><line x1="408.67" x2="449.06" y1="269.94" y2="289.96" class="cls-2"/><line x1="406.77" x2="450.96" y1="275.51" y2="284.39" class="cls-2"/><line x1="406.37" x2="451.36" y1="281.38" y2="278.52" class="cls-2"/><line x1="407.51" x2="450.22" y1="287.15" y2="272.75" class="cls-2"/><line x1="410.1" x2="447.63" y1="292.44" y2="267.47" class="cls-2"/><line x1="413.97" x2="443.76" y1="296.87" y2="263.04" class="cls-2"/><line x1="418.86" x2="438.87" y1="300.14" y2="259.76" class="cls-2"/><line x1="424.42" x2="433.3" y1="302.05" y2="257.86" class="cls-2"/><line x1="430.29" x2="427.43" y1="302.44" y2="257.46" class="cls-2"/><line x1="436.07" x2="421.66" y1="301.31" y2="258.6" class="cls-2"/><line x1="441.35" x2="416.38" y1="298.71" y2="261.19" class="cls-2"/><line x1="445.78" x2="411.95" y1="294.84" y2="265.06" class="cls-2"/><line x1="552.04" x2="546.78" y1="132.06" y2="173.63" class="cls-2"/><line x1="535.16" x2="570.78" y1="140.53" y2="112.92" class="cls-2"/><line x1="539.34" x2="566.6" y1="144.67" y2="108.78" class="cls-2"/><line x1="544.45" x2="561.49" y1="147.59" y2="105.86" class="cls-2"/><line x1="550.14" x2="555.8" y1="149.08" y2="104.37" class="cls-2"/><line x1="556.02" x2="549.91" y1="149.05" y2="104.4" class="cls-2"/><line x1="561.7" x2="544.24" y1="147.5" y2="105.95" class="cls-2"/><line x1="566.78" x2="539.16" y1="144.54" y2="108.91" class="cls-2"/><line x1="570.91" x2="535.02" y1="140.36" y2="113.09" class="cls-2"/><line x1="573.83" x2="532.1" y1="135.25" y2="118.2" class="cls-2"/><line x1="575.33" x2="530.61" y1="129.56" y2="123.89" class="cls-2"/><line x1="575.3" x2="530.64" y1="123.67" y2="129.78" class="cls-2"/><line x1="573.75" x2="532.19" y1="118" y2="135.45" class="cls-2"/><line x1="300.99" x2="321.28" y1="379.08" y2="415.74" class="cls-2"/><line x1="292.36" x2="304.81" y1="395.88" y2="352.56" class="cls-2"/><line x1="298.18" x2="298.99" y1="396.75" y2="351.69" class="cls-2"/><line x1="304.02" x2="293.14" y1="396.09" y2="352.35" class="cls-2"/><line x1="309.5" x2="287.67" y1="393.94" y2="354.5" class="cls-2"/><line x1="314.23" x2="282.94" y1="390.44" y2="358" class="cls-2"/><line x1="317.9" x2="279.27" y1="385.84" y2="362.6" class="cls-2"/><line x1="320.24" x2="276.92" y1="380.45" y2="368" class="cls-2"/><line x1="321.12" x2="276.05" y1="374.63" y2="373.82" class="cls-2"/><line x1="320.45" x2="276.71" y1="368.78" y2="379.66" class="cls-2"/><line x1="318.3" x2="278.87" y1="363.31" y2="385.14" class="cls-2"/><line x1="314.8" x2="282.36" y1="358.58" y2="389.87" class="cls-2"/><line x1="310.2" x2="286.97" y1="354.91" y2="393.53" class="cls-2"/><line x1="95.27" x2="83.19" y1="345.22" y2="385.35" class="cls-2"/><line x1="77.21" x2="116.92" y1="350.78" y2="329.45" class="cls-2"/><line x1="80.65" x2="113.48" y1="355.56" y2="324.67" class="cls-2"/><line x1="85.2" x2="108.93" y1="359.28" y2="320.95" class="cls-2"/><line x1="90.57" x2="103.56" y1="361.69" y2="318.53" class="cls-2"/><line x1="96.38" x2="97.75" y1="362.64" y2="317.59" class="cls-2"/><line x1="102.23" x2="91.9" y1="362.05" y2="318.18" class="cls-2"/><line x1="107.73" x2="86.4" y1="359.97" y2="320.26" class="cls-2"/><line x1="112.51" x2="81.62" y1="356.53" y2="323.7" class="cls-2"/><line x1="116.23" x2="77.9" y1="351.98" y2="328.25" class="cls-2"/><line x1="118.64" x2="75.48" y1="346.61" y2="333.62" class="cls-2"/><line x1="119.59" x2="74.54" y1="340.8" y2="339.43" class="cls-2"/><line x1="119" x2="75.13" y1="334.95" y2="345.28" class="cls-2"/><line x1="324.36" x2="313.07" y1="177.49" y2="217.85" class="cls-2"/><line x1="306.41" x2="345.69" y1="183.41" y2="161.29" class="cls-2"/><line x1="309.95" x2="342.16" y1="188.11" y2="156.59" class="cls-2"/><line x1="314.57" x2="337.53" y1="191.74" y2="152.95" class="cls-2"/><line x1="319.98" x2="332.12" y1="194.05" y2="150.64" class="cls-2"/><line x1="325.81" x2="326.3" y1="194.88" y2="149.81" class="cls-2"/><line x1="331.65" x2="320.46" y1="194.18" y2="150.52" class="cls-2"/><line x1="337.11" x2="315" y1="191.99" y2="152.71" class="cls-2"/><line x1="341.82" x2="310.29" y1="188.46" y2="156.24" class="cls-2"/><line x1="345.45" x2="306.66" y1="183.83" y2="160.87" class="cls-2"/><line x1="347.76" x2="304.35" y1="178.42" y2="166.28" class="cls-2"/><line x1="348.59" x2="303.52" y1="172.59" y2="172.11" class="cls-2"/><line x1="347.88" x2="304.22" y1="166.75" y2="177.95" class="cls-2"/><line x1="551.14" x2="538.87" y1="309.02" y2="349.08" class="cls-2"/><line x1="533.06" x2="572.87" y1="314.49" y2="293.35" class="cls-2"/><line x1="536.48" x2="569.46" y1="319.28" y2="288.56" class="cls-2"/><line x1="541.01" x2="564.92" y1="323.03" y2="284.82" class="cls-2"/><line x1="546.36" x2="559.57" y1="325.47" y2="282.37" class="cls-2"/><line x1="552.17" x2="553.77" y1="326.44" y2="281.4" class="cls-2"/><line x1="558.02" x2="547.91" y1="325.88" y2="281.96" class="cls-2"/><line x1="563.53" x2="542.4" y1="323.83" y2="284.02" class="cls-2"/><line x1="568.33" x2="537.61" y1="320.41" y2="287.43" class="cls-2"/><line x1="572.07" x2="533.86" y1="315.88" y2="291.97" class="cls-2"/><line x1="574.51" x2="531.42" y1="310.52" y2="297.32" class="cls-2"/><line x1="575.49" x2="530.45" y1="304.72" y2="303.12" class="cls-2"/><line x1="574.93" x2="531.01" y1="298.87" y2="308.98" class="cls-2"/></svg>