<svg xmlns="http://www.w3.org/2000/svg" xmlns:xlink="http://www.w3.org/1999/xlink" width="247" height="82" version="1.1" viewBox="0 0 247 82"><title>tietotalo</title><desc>Created with Sketch.</desc><g id="tietotalo" fill="none" fill-rule="evenodd" stroke="none" stroke-width="1"><g id="Tietotalo-logo" fill-rule="nonzero" transform="translate(18.000000, 23.000000)"><path id="Path" fill="#8FBF00" d="M17.1145,10.804 C19.2914,12.4972 20.3799,16.1254 19.5333,18.9071 L14.9375,33.9039 L3.2062,25.0751 C1.0292,23.3819 -0.0592,19.7537 0.7874,16.972 L5.3831,1.9753 C5.5041,2.0962 17.1145,10.804 17.1145,10.804 Z"/><path id="Path" fill="#B0D14D" d="M29.3296,14.916 C26.6688,15.037 23.7663,17.5768 22.9197,20.3584 L18.3239,35.3552 L32.474,34.5086 C35.1348,34.3876 38.0374,31.8479 38.8839,29.0662 L43.4797,14.0695 L29.3296,14.916 Z"/><path id="Path" fill="#C7DE80" d="M24.4919,0.6449 C27.1526,0.6449 30.6599,1.7334 32.4741,3.0637 L42.1494,10.0783 L29.5715,10.0783 C24.0081,10.0783 21.1055,8.1433 19.2914,6.8129 L10.8255,0.6449 L24.4919,0.6449 Z"/><polygon id="Path" fill="#000" points="75.287 9.232 60.895 9.232 60.895 10.925 67.184 10.925 67.184 26.526 69.119 26.526 69.119 10.925 75.287 10.925"/><polygon id="Path" fill="#000" points="82.302 9.232 80.367 9.232 80.367 26.526 82.302 26.526"/><polygon id="Path" fill="#000" points="98.508 9.232 88.954 9.232 88.954 26.526 98.75 26.526 98.75 24.833 90.768 24.833 90.768 18.665 98.387 18.665 98.387 16.972 90.768 16.972 90.768 10.925 98.508 10.925"/><polygon id="Path" fill="#000" points="116.891 9.232 102.378 9.232 102.378 10.925 108.667 10.925 108.667 26.526 110.602 26.526 110.602 10.925 116.891 10.925"/><path id="Shape" fill="#000" d="M128.985,24.9541 C125.236,24.9541 121.85,22.0515 121.85,17.9395 C121.85,14.1903 124.632,10.8039 129.106,10.8039 C133.702,10.8039 136.363,14.4321 136.363,17.8185 C136.363,22.0515 133.097,24.9541 128.985,24.9541 Z M128.985,26.7682 C134.186,26.7682 138.419,23.019 138.419,17.8185 C138.419,13.1018 134.791,8.8688 129.106,8.8688 C123.301,8.8688 119.794,13.2227 119.794,17.8185 C119.794,23.019 123.906,26.7682 128.985,26.7682 Z"/><polygon id="Path" fill="#000" points="155.593 9.232 141.2 9.232 141.2 10.925 147.489 10.925 147.489 26.526 149.424 26.526 149.424 10.925 155.593 10.925"/><path id="Shape" fill="#000" d="M168.775,19.2699 L162.365,19.2699 L165.51,12.0134 L168.775,19.2699 Z M166.114,9.1108 L164.784,9.1108 L157.044,26.5264 L158.979,26.5264 L161.398,20.963 L169.38,20.963 L171.92,26.5264 L173.855,26.5264 L166.114,9.1108 Z"/><polygon id="Path" fill="#000" points="180.507 9.232 178.692 9.232 178.692 26.526 188.731 26.526 188.731 24.833 180.507 24.833"/><path id="Shape" fill="#000" d="M200.946,24.9541 C197.196,24.9541 193.81,22.0515 193.81,17.9395 C193.81,14.1903 196.592,10.8039 201.067,10.8039 C205.662,10.8039 208.323,14.4321 208.323,17.8185 C208.323,22.0515 205.179,24.9541 200.946,24.9541 Z M201.067,26.7682 C206.267,26.7682 210.5,23.019 210.5,17.8185 C210.5,13.1018 206.872,8.8688 201.188,8.8688 C195.382,8.8688 191.875,13.2227 191.875,17.8185 C191.875,23.019 195.987,26.7682 201.067,26.7682 Z"/></g></g></svg>