<svg xmlns="http://www.w3.org/2000/svg" id="Layer_1" data-name="Layer 1" viewBox="0 0 1280 1024"><defs><style>.cls-1,.cls-3,.cls-4,.cls-5,.cls-6,.cls-7,.cls-8,.cls-9{fill:none;stroke:#000;stroke-miterlimit:10}.cls-1{stroke-width:3px}.cls-2{fill:#54cfc2}.cls-3,.cls-4,.cls-5,.cls-6,.cls-7,.cls-8,.cls-9{stroke-width:5px}.cls-4{stroke-dasharray:18.14 27.21}.cls-5{stroke-dasharray:18.56 27.83}.cls-6{stroke-dasharray:18.53 27.8}.cls-7{stroke-dasharray:20.97 31.46}.cls-8{stroke-dasharray:17.98 26.96}.cls-9{stroke-dasharray:21.1 31.64}</style></defs><title>partArtboard 9</title><path d="M272.34,680.53V502.28a3,3,0,0,0-1.48-2.59,51.36,51.36,0,0,0-67.36,15.22c-8,11.51-9,24.26-9,37.66v128c0,3.86,6,3.87,6,0V562.88c0-8.12-.67-16.66.33-24.75,3.91-31.67,39.56-48.62,67-33.26l-1.49-2.59V680.53c0,3.86,6,3.87,6,0Z"/><path d="M394.21,680.53V578.15c0-36.65.3-73.31,0-110-.25-30.66-22.31-58.12-52.89-63.35-33.65-5.76-67.2,16.86-73.76,50.58-2.05,10.56-1.22,21.76-1.22,32.46V680.53c0,3.86,6,3.87,6,0V478.23c0-12.57.23-24.6,6.06-36.16a58.86,58.86,0,0,1,39.12-30.79c35-8,69.82,19.27,70.68,55.12.78,32.56,0,65.23,0,97.8V680.53c0,3.86,6,3.87,6,0Z"/><path d="M168.89,681.1c.69,58.49,7.35,117.73,24.34,173.87,6.66,22,15,43.73,26.23,63.84,2.41,4.3,5,8.53,7.68,12.65,1.43,2.17,2.34,4.28,5.05,4.64,3,.41,6.35,0,9.37,0H347.77a24.25,24.25,0,0,0,3.19,0c2.71-.36,3.62-2.47,5.06-4.64,12-18.14,20.86-38.3,28.1-58.75,18.9-53.47,27.08-110.8,29.5-167.28q.51-12.16.64-24.33a3,3,0,0,0-3-3H171.89c-3.86,0-3.86,6,0,6H411.26l-3-3c-.46,39.43-3.77,78.87-11,117.66-6,32.15-14.42,64.23-27.54,94.25a230.64,230.64,0,0,1-21,38.58l2.59-1.49H231.86l2.59,1.49c-16-23.29-26.76-49.91-35-76.81-10.56-34.46-17-70.17-20.74-106-2.34-22.5-3.54-45.09-3.81-67.7C174.85,677.24,168.85,677.23,168.89,681.1Z"/><line x1="197.5" x2="180.4" y1="665.71" y2="665.71" class="cls-1"/><line x1="197.5" x2="180.4" y1="649.74" y2="649.74" class="cls-1"/><line x1="197.5" x2="180.4" y1="633.78" y2="633.78" class="cls-1"/><line x1="197.5" x2="180.4" y1="617.81" y2="617.81" class="cls-1"/><line x1="197.5" x2="180.4" y1="601.85" y2="601.85" class="cls-1"/><line x1="197.5" x2="180.4" y1="585.89" y2="585.89" class="cls-1"/><line x1="197.5" x2="180.4" y1="569.92" y2="569.92" class="cls-1"/><line x1="197.5" x2="180.4" y1="553.96" y2="553.96" class="cls-1"/><line x1="197.5" x2="180.4" y1="537.99" y2="537.99" class="cls-1"/><line x1="407.32" x2="390.21" y1="665.71" y2="665.71" class="cls-1"/><line x1="407.32" x2="390.21" y1="649.74" y2="649.74" class="cls-1"/><line x1="407.32" x2="390.21" y1="633.78" y2="633.78" class="cls-1"/><line x1="407.32" x2="390.21" y1="617.81" y2="617.81" class="cls-1"/><line x1="407.32" x2="390.21" y1="601.85" y2="601.85" class="cls-1"/><line x1="407.32" x2="390.21" y1="585.89" y2="585.89" class="cls-1"/><line x1="407.32" x2="390.21" y1="569.92" y2="569.92" class="cls-1"/><line x1="407.32" x2="390.21" y1="553.96" y2="553.96" class="cls-1"/><line x1="407.32" x2="390.21" y1="537.99" y2="537.99" class="cls-1"/><line x1="407.32" x2="390.21" y1="522.03" y2="522.03" class="cls-1"/><line x1="407.32" x2="390.21" y1="506.07" y2="506.07" class="cls-1"/><line x1="407.32" x2="390.21" y1="490.1" y2="490.1" class="cls-1"/><line x1="407.32" x2="390.21" y1="474.14" y2="474.14" class="cls-1"/><line x1="407.32" x2="390.21" y1="458.17" y2="458.17" class="cls-1"/><line x1="222.59" x2="222.59" y1="499.22" y2="483.26" class="cls-1"/><line x1="235.13" x2="235.13" y1="495.8" y2="479.84" class="cls-1"/><line x1="247.68" x2="247.68" y1="495.8" y2="479.84" class="cls-1"/><line x1="259.08" x2="259.08" y1="498.08" y2="482.12" class="cls-1"/><line x1="309.25" x2="309.25" y1="410.28" y2="394.32" class="cls-1"/><line x1="296.71" x2="296.71" y1="417.12" y2="401.16" class="cls-1"/><line x1="321.8" x2="321.8" y1="406.86" y2="390.9" class="cls-1"/><line x1="334.34" x2="334.34" y1="406.86" y2="390.9" class="cls-1"/><line x1="346.88" x2="346.88" y1="409.14" y2="393.18" class="cls-1"/><line x1="358.28" x2="358.28" y1="414.84" y2="398.88" class="cls-1"/><circle cx="802.2" cy="338.12" r="147.54" class="cls-2"/><path d="M946.74,338.12c-.28,60.06-38.35,115.29-95,135.85-57.05,20.69-122.25,2.84-161-43.81s-43.64-114.67-12.45-166.5S771.6,184.36,831,196.44c58.48,11.9,104.55,60.06,114,119a147.86,147.86,0,0,1,1.76,22.73c0,3.86,6,3.87,6,0-.3-62.65-39.92-119.72-98.82-141.4-59.21-21.8-127.8-3-167.84,45.62s-45.51,119.2-13,173.27S770,498,831.9,485.72C893,473.6,941.69,422.67,951,361.09a160.5,160.5,0,0,0,1.76-23C952.76,334.26,946.76,334.26,946.74,338.12Z"/><line x1="666.61" x2="659.54" y1="177.77" y2="170.7" class="cls-3"/><line x1="640.3" x2="489.59" y1="151.46" y2=".75" class="cls-4"/><line x1="614.81" x2="605.35" y1="254.36" y2="251.11" class="cls-3"/><line x1="579.02" x2="328.92" y1="242.08" y2="156.26" class="cls-5"/><line x1="315.76" x2="306.3" y1="151.74" y2="148.49" class="cls-3"/><line x1="612.56" x2="602.56" y1="366.98" y2="366.98" class="cls-3"/><line x1="574.76" x2="310.7" y1="366.98" y2="366.98" class="cls-6"/><line x1="296.8" x2="286.8" y1="366.98" y2="366.98" class="cls-3"/><line x1="714.83" x2="708.75" y1="521.52" y2="529.46" class="cls-3"/><line x1="689.61" x2="539.73" y1="554.44" y2="750.07" class="cls-7"/><line x1="530.17" x2="524.08" y1="762.56" y2="770.5" class="cls-3"/><line x1="640.37" x2="631.59" y1="451.4" y2="456.19" class="cls-3"/><line x1="607.92" x2="461.97" y1="469.11" y2="548.78" class="cls-8"/><line x1="450.14" x2="441.36" y1="555.24" y2="560.03" class="cls-3"/><line x1="813.03" x2="813.03" y1="542.83" y2="552.83" class="cls-3"/><line x1="813.03" x2="813.03" y1="584.47" y2="832.35" class="cls-9"/><line x1="813.03" x2="813.03" y1="848.17" y2="858.17" class="cls-3"/><line x1="917.36" x2="923.44" y1="521.52" y2="529.46" class="cls-3"/><line x1="942.58" x2="1092.46" y1="554.44" y2="750.07" class="cls-7"/><line x1="1102.03" x2="1108.11" y1="762.56" y2="770.5" class="cls-3"/></svg>