<svg xmlns="http://www.w3.org/2000/svg" xmlns:svg="http://www.w3.org/2000/svg" id="svg96" width="414.086" height="494.417" version="1.1" viewBox="60 -15 211.817 255.088"><metadata id="metadata102"/><g id="g6" transform="translate(-298.78974,-56.733271)"><rect id="rect2" width="178" height="167" x="61" y="65" style="fill:#fff"/><rect id="rect4" width="178" height="167" x="61" y="65" style="fill:none;fill-opacity:0;stroke:#000;stroke-width:2"/></g><text id="text10" x="-228.79" y="39.267" font-size="22.578" style="font-style:normal;font-weight:700;font-size:22.57780075px;font-family:sans-serif;text-anchor:start;fill:#000"><tspan id="tspan8" x="-228.79" y="39.267">NOTELIST</tspan></text><text id="text14" x="-143.29" y="78.267" font-size="14.675" style="font-style:normal;font-weight:400;font-size:14.67529964px;font-family:sans-serif;text-anchor:start;fill:#000"><tspan id="tspan12" x="-143.29" y="78.267">PROPS:</tspan></text><text id="text18" x="-139.79" y="100.267" font-size="12.8" style="font-style:normal;font-weight:400;font-size:12.79979992px;font-family:sans-serif;text-anchor:start;fill:#000"><tspan id="tspan16" x="-139.79" y="100.267">NOTES</tspan></text><text id="text22" x="-139.79" y="124.267" font-size="12.8" style="font-style:normal;font-weight:400;font-size:12.79979992px;font-family:sans-serif;text-anchor:start;fill:#000"><tspan id="tspan20" x="-139.79" y="124.267">FILTER</tspan></text><line id="line24" x1="-229.79" x2="-82.79" y1="45.267" y2="45.267" style="fill:none;fill-opacity:0;stroke:#000;stroke-width:2"/><g id="g36" transform="matrix(1.3872903,0,0,0.99866381,-437.26263,-56.514803)"><path id="path26" d="m 358,75.1667 c 30.4,-33.125 45.6,-42.720323 76,-42.720323 30.4,0 45.6,9.595323 76,42.720323 V 251.833 C 479.6,284.958 464.4,296 434,296 c -30.4,0 -45.6,-11.042 -76,-44.167 z" style="fill:#fff"/><path id="path28" d="m 358,75.1667 c 30.4,-33.125 45.6,-32.595684 76,-32.595684 30.4,0 45.6,-0.529316 76,32.595684 V 251.833 C 479.6,284.958 464.4,296 434,296 403.6,296 388.4,284.958 358,251.833 V 75.1667" style="fill:none;fill-opacity:0;stroke:#000;stroke-width:2"/><path id="path30" d="M 357.86996,75.074249 C 388.32198,96.491261 403.54798,103.62977 434,103.62977 c 30.45202,0 45.67802,-7.138509 76.13004,-28.555521" style="fill:none;fill-opacity:0;stroke:#000;stroke-width:1.60953629"/></g><text id="text40" x="46.21" y="-50.733" font-size="22.578" style="font-style:normal;font-weight:700;font-size:22.57780075px;font-family:sans-serif;text-anchor:start;fill:#000"><tspan id="tspan38" x="46.21" y="-50.733">REDUX STORE</tspan></text><text id="text44" x="94.21" y="81.267" font-size="12.8" style="font-style:normal;font-weight:400;font-size:12.79979992px;font-family:sans-serif;text-anchor:start;fill:#000"><tspan id="tspan42" x="94.21" y="81.267">NOTES</tspan></text><g id="g50" transform="matrix(1.5069326,0,0,0.97504056,-505.69757,-52.827118)"><rect id="rect46" width="59" height="17" x="408.575" y="148" style="fill:#fff"/><rect id="rect48" width="59" height="17" x="408.575" y="148" style="fill:none;fill-opacity:0;stroke:#000;stroke-width:2"/></g><g id="g56" transform="matrix(1.5069326,0,0,0.97504056,-505.69757,-52.352889)"><rect id="rect52" width="59" height="17" x="408.575" y="167" style="fill:#fff"/><rect id="rect54" width="59" height="17" x="408.575" y="167" style="fill:none;fill-opacity:0;stroke:#000;stroke-width:2"/></g><g id="g62" transform="matrix(1.5069326,0,0,0.97504056,-505.69757,-51.87866)"><rect id="rect58" width="59" height="17" x="408.575" y="186" style="fill:#fff"/><rect id="rect60" width="59" height="17" x="408.575" y="186" style="fill:none;fill-opacity:0;stroke:#000;stroke-width:2"/></g><g id="g68" transform="matrix(1.5069326,0,0,0.97504056,-505.69757,-51.40443)"><rect id="rect64" width="59" height="17" x="408.575" y="205" style="fill:#fff"/><rect id="rect66" width="59" height="17" x="408.575" y="205" style="fill:none;fill-opacity:0;stroke:#000;stroke-width:2"/></g><g id="g74" transform="matrix(1.5311089,0,0,0.9739794,-515.5664,-49.87164)"><rect id="rect70" width="59" height="17" x="408.575" y="255.2" style="fill:#fff"/><rect id="rect72" width="59" height="17" x="408.575" y="255.2" style="fill:none;fill-opacity:0;stroke:#000;stroke-width:2"/></g><text id="text78" x="94.21" y="191.267" font-size="12.8" style="font-style:normal;font-weight:400;font-size:12.79979992px;font-family:sans-serif;text-anchor:start;fill:#000"><tspan id="tspan76" x="94.21" y="191.267">FILTER</tspan></text><g id="g86" transform="translate(-298.78974,-56.733271)"><path id="path80" d="M 374.675,145.219 A 269.109,269.109 0 0 0 212,151" style="fill:none;fill-opacity:0;stroke:#000;stroke-width:2"/><polygon id="polygon82" points="374.722 145.049 373.855 139.527 381.869 147.322 370.824 149.057" style="fill:#000"/><polygon id="polygon84" points="374.722 145.049 373.855 139.527 381.869 147.322 370.824 149.057" style="fill:none;fill-opacity:0;stroke:#000;stroke-width:2"/></g><g id="g94" transform="translate(-298.78974,-56.733271)"><path id="path88" d="m 212,177 a 242.412,242.412 0 0 0 165.279,80.567" style="fill:none;fill-opacity:0;stroke:#000;stroke-width:2"/><polygon id="polygon90" points="377.267 257.762 374.89 252.703 384.765 257.945 374.645 262.7" style="fill:#000"/><polygon id="polygon92" points="377.267 257.762 374.89 252.703 384.765 257.945 374.645 262.7" style="fill:none;fill-opacity:0;stroke:#000;stroke-width:2"/></g></svg>