<svg xmlns="http://www.w3.org/2000/svg" xmlns:xlink="http://www.w3.org/1999/xlink" width="26cm" height="30cm" viewBox="60 -150 504 596"><g><path d="M 319.753 -13.5566 C 368.402,-82.3227 392.726,-105.245 441.375,-105.245 C 490.024,-105.245 514.349,-82.3227 562.998,-13.5566 L 562.998,353.196 C 514.349,421.962 490.024,444.884 441.375,444.884 C 392.726,444.884 368.402,421.962 319.753,353.196 L 319.753,-13.5566z" style="fill:#fff"/><path d="M 319.753 -13.5566 C 368.402,-82.3227 392.726,-105.245 441.375,-105.245 C 490.024,-105.245 514.349,-82.3227 562.998,-13.5566 L 562.998,353.196 C 514.349,421.962 490.024,444.884 441.375,444.884 C 392.726,444.884 368.402,421.962 319.753,353.196 L 319.753,-13.5566" style="fill:none;fill-opacity:0;stroke-width:2;stroke:#000"/><path d="M 319.753 -13.5566 C 368.402,55.2096 392.726,78.1316 441.375,78.1316 C 490.024,78.1316 514.349,55.2096 562.998,-13.5566" style="fill:none;fill-opacity:0;stroke-width:2;stroke:#000"/></g><g><rect width="115.966" height="125.865" x="377.029" y="113.958" style="fill:#fff"/><rect width="115.966" height="125.865" x="377.029" y="113.958" style="fill:none;fill-opacity:0;stroke-width:2;stroke:#000"/></g><g><rect width="178" height="167" x="61" y="65" style="fill:#fff"/><rect width="178" height="167" x="61" y="65" style="fill:none;fill-opacity:0;stroke-width:2;stroke:#000"/></g><text x="70" y="96" font-size="22.578" style="fill:#000;text-anchor:start;font-family:sans-serif;font-style:normal;font-weight:700"><tspan x="70" y="96">NOTELIST</tspan></text><text x="76.304" y="132.879" font-size="14.675" style="fill:#000;text-anchor:start;font-family:sans-serif;font-style:normal;font-weight:400"><tspan x="76.304" y="132.879">PROPS:</tspan></text><text x="79.804" y="154.879" font-size="12.8" style="fill:#000;text-anchor:start;font-family:sans-serif;font-style:normal;font-weight:400"><tspan x="79.804" y="154.879">NOTES</tspan></text><text x="79.804" y="178.879" font-size="12.8" style="fill:#000;text-anchor:start;font-family:sans-serif;font-style:normal;font-weight:400"><tspan x="79.804" y="178.879">FILTER</tspan></text><line x1="69" x2="216" y1="102" y2="102" style="fill:none;fill-opacity:0;stroke-width:2;stroke:#000"/><text x="343.586" y="-128.35" font-size="22.578" style="fill:#000;text-anchor:start;font-family:sans-serif;font-style:normal;font-weight:700"><tspan x="343.586" y="-128.35">REDUX STORE</tspan></text><text x="393" y="138" font-size="12.8" style="fill:#000;text-anchor:start;font-family:sans-serif;font-style:normal;font-weight:400"><tspan x="393" y="138">NOTES</tspan></text><g><rect width="59" height="33.841" x="408.575" y="148" style="fill:#fff"/><rect width="59" height="33.841" x="408.575" y="148" style="fill:none;fill-opacity:0;stroke-width:2;stroke:#000"/></g><g><rect width="59" height="17" x="408.575" y="210.652" style="fill:#fff"/><rect width="59" height="17" x="408.575" y="210.652" style="fill:none;fill-opacity:0;stroke-width:2;stroke:#000"/></g><text x="393" y="203.452" font-size="12.8" style="fill:#000;text-anchor:start;font-family:sans-serif;font-style:normal;font-weight:400"><tspan x="393" y="203.452">FILTER</tspan></text><g><path d="M 388.767,156.269 A 640.224,640.224 0 0 0 130.956,150.728" style="fill:none;fill-opacity:0;stroke-width:2;stroke:#000"/><polygon points="396.07 157.976 385.169 160.461 388.784 156.197 387.541 150.746" style="fill:#000"/><polygon points="396.07 157.976 385.169 160.461 388.784 156.197 387.541 150.746" style="fill:none;fill-opacity:0;stroke-width:2;stroke:#000"/></g><g><path d="M 387.859,214.823 A 594.509,594.509 0 0 0 133.077,170.527" style="fill:none;fill-opacity:0;stroke-width:2;stroke:#000"/><polygon points="394.775 217.723 383.612 218.348 387.89 214.749 387.578 209.168" style="fill:#000"/><polygon points="394.775 217.723 383.612 218.348 387.89 214.749 387.578 209.168" style="fill:none;fill-opacity:0;stroke-width:2;stroke:#000"/></g><text x="78.983" y="200.933" font-size="12.8" style="fill:#000;text-anchor:start;font-family:sans-serif;font-style:normal;font-weight:400"><tspan x="78.983" y="200.933">IMPORTANCETOGGLING</tspan></text><text x="377.029" y="108.302" font-size="14.675" style="fill:#000;text-anchor:start;font-family:sans-serif;font-style:normal;font-weight:400"><tspan x="377.029" y="108.302">STAGE</tspan></text><g><ellipse cx="447.233" cy="278.108" rx="49.877" ry="24.939" style="fill:#fff"/><ellipse cx="447.233" cy="278.108" rx="49.877" ry="24.939" style="fill:none;fill-opacity:0;stroke-width:2;stroke:#000"/><text x="447.233" y="282.008" font-size="12.8" style="fill:#000;text-anchor:middle;font-family:sans-serif;font-style:normal;font-weight:400"><tspan x="447.233" y="282.008">DISPATCH</tspan></text></g><g><rect width="158.392" height="46.669" x="362.058" y="328.429" style="fill:#fff"/><rect width="158.392" height="46.669" x="362.058" y="328.429" style="fill:none;fill-opacity:0;stroke-width:2;stroke:#000"/></g><text x="369.315" y="350.132" font-size="12.8" style="fill:#000;text-anchor:start;font-family:sans-serif;font-style:normal;font-weight:400"><tspan x="369.315" y="350.132">{TYPE: &apos;TOGGLE_IMP..&apos;,</tspan> <tspan x="369.315" y="366.132"> ID: ID</tspan></text><g><rect width="12.789" height="46.669" x="347.27" y="328.429" style="fill:#fff"/><rect width="12.789" height="46.669" x="347.27" y="328.429" style="fill:none;fill-opacity:0;stroke-width:2;stroke:#000"/></g><g><rect width="12.789" height="46.669" x="522.45" y="328.429" style="fill:#fff"/><rect width="12.789" height="46.669" x="522.45" y="328.429" style="fill:none;fill-opacity:0;stroke-width:2;stroke:#000"/></g><g><path d="M 133.077,208.711 A 405.112,405.112 0 0 0 331.65,347.313" style="fill:none;fill-opacity:0;stroke-width:2;stroke:#000"/><polygon points="338.818 349.51 327.822 351.532 331.614 347.424 330.603 341.926" style="fill:#000"/><polygon points="338.818 349.51 327.822 351.532 331.614 347.424 330.603 341.926" style="fill:none;fill-opacity:0;stroke-width:2;stroke:#000"/></g><g><path d="M 398.164,297.162 A 136.45,136.45 0 0 0 369.251,328.212" style="fill:none;fill-opacity:0;stroke-width:2;stroke:#000"/><polygon points="404.167 292.693 398.675 302.432 397.95 296.889 393.081 294.143" style="fill:#000"/><polygon points="404.167 292.693 398.675 302.432 397.95 296.889 393.081 294.143" style="fill:none;fill-opacity:0;stroke-width:2;stroke:#000"/></g></svg>