<svg xmlns="http://www.w3.org/2000/svg" xmlns:svg="http://www.w3.org/2000/svg" id="svg142" width="1213.793" height="1129.665" version="1.1" viewBox="60 -150 622.536 593.796"><metadata id="metadata148"/><g id="g12" transform="matrix(1.5482771,0,0,0.99453363,-181.29927,-2.7020244)"><path id="path2" d="m 319.753,-13.5566 c 48.649,-68.7661 72.973,-91.6884 121.622,-91.6884 48.649,0 72.974,22.9223 121.623,91.6884 V 353.196 c -48.649,68.766 -72.974,91.688 -121.623,91.688 -48.649,0 -72.973,-22.922 -121.622,-91.688 z" style="fill:#fff"/><path id="path4" d="m 319.63674,-13.080253 c 48.649,-69.154457 73.78856,-73.79625 122.43756,-73.79625 48.649,0 72.15844,4.641793 120.80744,73.79625 V 355.74359 c -48.649,69.15435 -72.974,71.25655 -121.623,71.25655 -48.649,0 -72.973,-2.1022 -121.622,-71.25655 V -13.080253" style="fill:none;fill-opacity:0;stroke:#000;stroke-width:2.00563955"/><path id="path6" d="m 319.63674,-13.598064 c 48.69551,46.079171 73.04276,61.43885 121.73826,61.43885 48.6955,0 73.04375,-15.359679 121.73926,-61.43885" style="fill:none;fill-opacity:0;stroke:#000;stroke-width:1.63795614"/></g><g id="g18" transform="matrix(2.102966,0,0,0.99292855,-421.63204,-3.6421595)"><rect id="rect14" width="115.966" height="125.865" x="377.029" y="113.958" style="fill:#fff"/><rect id="rect16" width="115.966" height="125.865" x="377.029" y="113.958" style="fill:none;fill-opacity:0;stroke:#000;stroke-width:2"/></g><g id="g24" transform="matrix(1.0776075,0,0,0.99954678,-10.92312,-4.8257299)"><rect id="rect20" width="178" height="167" x="61" y="65" style="fill:#fff"/><rect id="rect22" width="178" height="167" x="61" y="65" style="fill:none;fill-opacity:0;stroke:#000;stroke-width:2"/></g><text id="text28" x="63.773" y="91.107" font-size="22.578" style="font-style:normal;font-weight:700;font-size:22.57780075px;font-family:sans-serif;text-anchor:start;fill:#000"><tspan id="tspan26" x="63.773" y="91.107">NOTELIST</tspan></text><text id="text32" x="70.077" y="127.986" font-size="14.675" style="font-style:normal;font-weight:400;font-size:14.67529964px;font-family:sans-serif;text-anchor:start;fill:#000"><tspan id="tspan30" x="70.077" y="127.986">PROPS:</tspan></text><text id="text36" x="73.577" y="149.986" font-size="12.8" style="font-style:normal;font-weight:400;font-size:12.79979992px;font-family:sans-serif;text-anchor:start;fill:#000"><tspan id="tspan34" x="73.577" y="149.986">NOTES</tspan></text><text id="text40" x="73.577" y="173.986" font-size="12.8" style="font-style:normal;font-weight:400;font-size:12.79979992px;font-family:sans-serif;text-anchor:start;fill:#000"><tspan id="tspan38" x="73.577" y="173.986">FILTER</tspan></text><line id="line42" x1="62.773" x2="209.773" y1="97.107" y2="97.107" style="fill:none;fill-opacity:0;stroke:#000;stroke-width:2"/><text id="text46" x="337.359" y="-133.243" font-size="22.578" style="font-style:normal;font-weight:700;font-size:22.57780075px;font-family:sans-serif;text-anchor:start;fill:#000"><tspan id="tspan44" x="337.359" y="-133.243">REDUX STORE</tspan></text><text id="text50" x="386.773" y="133.107" font-size="12.8" style="font-style:normal;font-weight:400;font-size:12.79979992px;font-family:sans-serif;text-anchor:start;fill:#000"><tspan id="tspan48" x="386.773" y="133.107">NOTES</tspan></text><g id="g56" transform="translate(-6.226903,-4.8930324)"><rect id="rect52" width="59" height="33.841" x="408.575" y="148" style="fill:#fff"/><rect id="rect54" width="59" height="33.841" x="408.575" y="148" style="fill:none;fill-opacity:0;stroke:#000;stroke-width:2"/></g><g id="g62" transform="translate(-6.226903,-4.8930324)"><rect id="rect58" width="59" height="17" x="408.575" y="210.652" style="fill:#fff"/><rect id="rect60" width="59" height="17" x="408.575" y="210.652" style="fill:none;fill-opacity:0;stroke:#000;stroke-width:2"/></g><text id="text66" x="386.773" y="198.559" font-size="12.8" style="font-style:normal;font-weight:400;font-size:12.79979992px;font-family:sans-serif;text-anchor:start;fill:#000"><tspan id="tspan64" x="386.773" y="198.559">FILTER</tspan></text><g id="g74" transform="translate(-6.226903,-4.8930324)"><path id="path68" d="M 388.767,156.269 A 640.224,640.224 0 0 0 130.956,150.728" style="fill:none;fill-opacity:0;stroke:#000;stroke-width:2"/><polygon id="polygon70" points="388.784 156.197 387.541 150.746 396.07 157.976 385.169 160.461" style="fill:#000"/><polygon id="polygon72" points="388.784 156.197 387.541 150.746 396.07 157.976 385.169 160.461" style="fill:none;fill-opacity:0;stroke:#000;stroke-width:2"/></g><g id="g82" transform="translate(-6.226903,-4.8930324)"><path id="path76" d="M 387.859,214.823 A 594.509,594.509 0 0 0 133.077,170.527" style="fill:none;fill-opacity:0;stroke:#000;stroke-width:2"/><polygon id="polygon78" points="387.89 214.749 387.578 209.168 394.775 217.723 383.612 218.348" style="fill:#000"/><polygon id="polygon80" points="387.89 214.749 387.578 209.168 394.775 217.723 383.612 218.348" style="fill:none;fill-opacity:0;stroke:#000;stroke-width:2"/></g><text id="text86" x="72.756" y="196.04" font-size="12.8" style="font-style:normal;font-weight:400;font-size:12.79979992px;font-family:sans-serif;text-anchor:start;fill:#000"><tspan id="tspan84" x="72.756" y="196.04">TOGGLE_IMPORTANCE_OF</tspan></text><text id="text90" x="370.802" y="103.409" font-size="14.675" style="font-style:normal;font-weight:400;font-size:14.67529964px;font-family:sans-serif;text-anchor:start;fill:#000"><tspan id="tspan88" x="370.802" y="103.409">STATE</tspan></text><g id="g100" transform="translate(-6.226903,-4.8930324)"><ellipse id="ellipse92" cx="447.233" cy="278.108" rx="49.877" ry="24.939" style="fill:#fff"/><ellipse id="ellipse94" cx="447.233" cy="278.108" rx="49.877" ry="24.939" style="fill:none;fill-opacity:0;stroke:#000;stroke-width:2"/><text id="text98" x="447.233" y="282.008" font-size="12.8" style="font-style:normal;font-weight:400;font-size:12.79979992px;font-family:sans-serif;text-anchor:middle;fill:#000"><tspan id="tspan96" x="447.233" y="282.008">DISPATCH</tspan></text></g><g id="g106" transform="matrix(1.6581469,0,0,0.98800304,-244.23431,-0.6729404)"><rect id="rect102" width="158.392" height="46.669" x="362.058" y="328.429" style="fill:#fff"/><rect id="rect104" width="158.392" height="46.669" x="362.058" y="328.429" style="fill:none;fill-opacity:0;stroke:#000;stroke-width:2"/></g><text id="text112" x="315.334" y="397.078" font-size="12.8" transform="scale(1.1501541,0.86944872)" style="font-style:normal;font-weight:400;font-size:14.72174168px;font-family:sans-serif;text-anchor:start;fill:#000;stroke-width:1.15015411"><tspan style="stroke-width:1.15015411" id="tspan108" x="315.334" y="397.078">{TYPE: &apos;TOGGLE_IMPORT...&apos;,</tspan> <tspan style="stroke-width:1.15015411" id="tspan110" x="315.334" y="415.48">ID: ID</tspan></text><g id="g118" transform="translate(-6.226903,-4.8930324)"><rect id="rect114" width="12.789" height="46.669" x="347.27" y="328.429" style="fill:#fff"/><rect id="rect116" width="12.789" height="46.669" x="347.27" y="328.429" style="fill:none;fill-opacity:0;stroke:#000;stroke-width:2"/></g><g id="g124" transform="translate(83.509675,-5.172976)"><rect id="rect120" width="12.789" height="46.669" x="522.45" y="328.429" style="fill:#fff"/><rect id="rect122" width="12.789" height="46.669" x="522.45" y="328.429" style="fill:none;fill-opacity:0;stroke:#000;stroke-width:2"/></g><g id="g132" transform="translate(-6.226903,-4.8930324)"><path id="path126" d="M 133.077,208.711 A 405.112,405.112 0 0 0 331.65,347.313" style="fill:none;fill-opacity:0;stroke:#000;stroke-width:2"/><polygon id="polygon128" points="331.614 347.424 330.603 341.926 338.818 349.51 327.822 351.532" style="fill:#000"/><polygon id="polygon130" points="331.614 347.424 330.603 341.926 338.818 349.51 327.822 351.532" style="fill:none;fill-opacity:0;stroke:#000;stroke-width:2"/></g><g id="g140" transform="translate(-6.226903,-4.8930324)"><path id="path134" d="m 398.164,297.162 a 136.45,136.45 0 0 0 -28.913,31.05" style="fill:none;fill-opacity:0;stroke:#000;stroke-width:2"/><polygon id="polygon136" points="397.95 296.889 393.081 294.143 404.167 292.693 398.675 302.432" style="fill:#000"/><polygon id="polygon138" points="397.95 296.889 393.081 294.143 404.167 292.693 398.675 302.432" style="fill:none;fill-opacity:0;stroke:#000;stroke-width:2"/></g></svg>